HIERARCHY
ROOT Hips
{
 OFFSET 0.000000 0.000000 0.000000
 CHANNELS 6 Xposition Yposition Zposition Yrotation Xrotation Zrotation
 JOINT Chest
 {
  OFFSET 0.000000 9.585900 0.002600
  CHANNELS 3 Yrotation Xrotation Zrotation
  JOINT Chest2
  {
   OFFSET 0.000000 9.601200 -0.005300
   CHANNELS 3 Yrotation Xrotation Zrotation
   JOINT Chest3
   {
    OFFSET 0.000000 9.561800 0.000000
    CHANNELS 3 Yrotation Xrotation Zrotation
    JOINT Chest4
    {
     OFFSET 0.000000 9.552100 0.000000
     CHANNELS 3 Yrotation Xrotation Zrotation
     JOINT Neck
     {
      OFFSET 0.000000 14.453000 0.000000
      CHANNELS 3 Yrotation Xrotation Zrotation
      JOINT Head
      {
       OFFSET 0.000000 8.936500 -0.011300
       CHANNELS 3 Yrotation Xrotation Zrotation
       End Site
       {
        OFFSET 0.000000 17.073600 -0.006000
       }
      }
     }
     JOINT RightCollar
     {
      OFFSET -2.921100 9.558500 0.000000
      CHANNELS 3 Yrotation Xrotation Zrotation
      JOINT RightShoulder
      {
       OFFSET -13.519700 0.000000 0.000000
       CHANNELS 3 Yrotation Xrotation Zrotation
       JOINT RightElbow
       {
        OFFSET 0.000000 -29.696600 0.000000
        CHANNELS 3 Yrotation Xrotation Zrotation
        JOINT RightWrist
        {
         OFFSET 0.000000 -24.004700 0.000000
         CHANNELS 3 Yrotation Xrotation Zrotation
         End Site
         {
          OFFSET 0.000000 -17.728500 0.000000
         }
        }
       }
      }
     }
     JOINT LeftCollar
     {
      OFFSET 2.921100 9.558500 0.000000
      CHANNELS 3 Yrotation Xrotation Zrotation
      JOINT LeftShoulder
      {
       OFFSET 13.519700 0.000000 0.000000
       CHANNELS 3 Yrotation Xrotation Zrotation
       JOINT LeftElbow
       {
        OFFSET 0.000000 -29.696600 0.000000
        CHANNELS 3 Yrotation Xrotation Zrotation
        JOINT LeftWrist
        {
         OFFSET 0.000000 -24.004700 0.000000
         CHANNELS 3 Yrotation Xrotation Zrotation
         End Site
         {
          OFFSET 0.000000 -17.728500 0.000000
         }
        }
       }
      }
     }
    }
   }
  }
 }
 JOINT RightHip
 {
  OFFSET -7.771700 -0.012900 -0.001300
  CHANNELS 3 Yrotation Xrotation Zrotation
  JOINT RightKnee
  {
   OFFSET 0.000000 -40.869800 0.001200
   CHANNELS 3 Yrotation Xrotation Zrotation
   JOINT RightAnkle
   {
    OFFSET 0.000000 -39.717900 0.002100
    CHANNELS 3 Yrotation Xrotation Zrotation
    JOINT RightToe
    {
     OFFSET 0.000000 -4.965400 11.033500
     CHANNELS 3 Yrotation Xrotation Zrotation
     End Site
     {
      OFFSET 0.000000 -1.423100 5.872300
     }
    }
   }
  }
 }
 JOINT LeftHip
 {
  OFFSET 7.771700 -0.012900 -0.001300
  CHANNELS 3 Yrotation Xrotation Zrotation
  JOINT LeftKnee
  {
   OFFSET 0.000000 -40.869800 0.001200
   CHANNELS 3 Yrotation Xrotation Zrotation
   JOINT LeftAnkle
   {
    OFFSET 0.000000 -39.717900 0.002100
    CHANNELS 3 Yrotation Xrotation Zrotation
    JOINT LeftToe
    {
     OFFSET 0.000000 -4.965400 11.033500
     CHANNELS 3 Yrotation Xrotation Zrotation
     End Site
     {
      OFFSET 0.000000 -1.423100 5.872300
     }
    }
   }
  }
 }
}
MOTION
Frames: 8
Frame Time: 0.008333
-82.669934 55.590750 -43.603075 -173.174522 -12.556255 -1.131143 -2.225722 15.721328 1.563702 -0.249071 1.502287 0.199251 -0.414795 2.520015 0.330521 -2.124446 13.807159 1.609376 2.127429 15.498683 1.625579 1.891924 -9.447047 1.256312 0.513058 -0.903654 0.431756 13.089956 -6.404085 -15.872308 -65.324022 -56.475911 111.682249 -7.886867 12.920365 9.380826 -8.832179 -1.579878 -0.103874 3.336047 -20.115552 3.384474 37.901199 -50.119974 -74.178276 6.904497 6.414680 -4.467765 -2.849664 -63.123189 7.375899 -18.612019 85.776343 -22.651548 -9.018556 -15.223186 8.470229 -0.009789 -0.308225 0.296883 10.493793 -59.284442 -12.789293 90.117045 70.369624 91.867554 0.984602 -19.856593 -3.199268 0.332095 0.621983 0.147573
-82.672905 55.576720 -43.612824 -173.167353 -12.539895 -1.107834 -2.194554 15.713638 1.565936 -0.230695 1.501151 0.204412 -0.407198 2.514855 0.332727 -2.083774 13.796445 1.627887 2.093007 15.498517 1.703714 1.838307 -9.452590 1.339392 0.511353 -0.923057 0.431908 13.092902 -6.388330 -15.886300 -65.312235 -56.433927 111.660224 -7.881839 12.900599 9.335467 -8.762716 -1.580414 -0.056493 3.383023 -19.877100 3.341639 37.951040 -50.132181 -74.335014 6.900420 6.360902 -4.423603 -2.822906 -63.173046 7.322233 -18.907673 85.817564 -22.938825 -8.973263 -15.187300 8.407700 -0.027531 -0.310995 0.279207 10.572836 -59.294107 -12.855548 90.177835 70.372811 91.927669 0.978602 -19.885739 -3.186323 0.320244 0.627267 0.146359
-82.676075 55.564035 -43.622500 -173.156210 -12.519954 -1.090421 -2.196170 15.695786 1.554991 -0.214607 1.501602 0.208864 -0.369750 2.510653 0.342440 -2.045554 13.783736 1.643722 2.061329 15.496408 1.776576 1.788798 -9.454389 1.422919 0.459399 -0.926044 0.431201 13.157021 -6.397260 -15.906041 -65.303545 -56.407065 111.622994 -7.888370 12.878813 9.308560 -8.691263 -1.579093 -0.013069 3.426086 -19.656111 3.313934 37.989250 -50.150560 -74.475770 6.897993 6.297338 -4.367592 -2.806227 -63.212198 7.281884 -19.143595 85.848749 -23.175761 -8.948809 -15.191168 8.396785 -0.019307 -0.277805 0.232519 10.635139 -59.310048 -12.906844 90.243192 70.379867 91.988764 0.970130 -19.910441 -3.171443 0.308975 0.628354 0.145535
-82.678658 55.553332 -43.633541 -173.143271 -12.508811 -1.082944 -2.154573 15.691423 1.575886 -0.239907 1.495595 0.201544 -0.333143 2.503479 0.352388 -2.062362 13.779132 1.643226 2.101409 15.482021 1.867555 1.725012 -9.453630 1.489630 0.460910 -0.933202 0.434285 13.223458 -6.417894 -15.931505 -65.279357 -56.387704 111.573707 -7.909388 12.843516 9.251595 -8.572042 -1.585106 0.030280 3.472776 -19.453578 3.295501 38.011650 -50.176401 -74.600052 6.902601 6.220661 -4.296821 -2.812640 -63.236580 7.263302 -19.344457 85.876685 -23.375140 -8.938800 -15.203982 8.395418 0.004396 -0.241815 0.185464 10.671579 -59.319264 -12.928001 90.310759 70.391979 92.049509 0.960511 -19.931279 -3.160422 0.308190 0.627144 0.148844
-82.681324 55.544163 -43.642743 -173.133362 -12.491786 -1.076465 -2.052733 15.680745 1.632197 -0.247309 1.487027 0.198219 -0.372423 2.495605 0.340639 -2.005704 13.759071 1.661689 2.046916 15.481174 1.936143 1.678842 -9.458727 1.568883 0.538561 -0.980084 0.443414 13.082180 -6.369202 -15.942982 -65.246291 -56.397909 111.580483 -7.940423 12.802163 9.192664 -8.531974 -1.578997 0.069254 3.523577 -19.269662 3.285170 38.028417 -50.204625 -74.715793 6.908633 6.140439 -4.212042 -2.819636 -63.264785 7.249801 -19.419133 85.904364 -23.453163 -8.937359 -15.220177 8.409393 -0.006266 -0.179819 0.109177 10.703316 -59.333374 -12.940304 90.370922 70.408896 92.098861 0.946308 -19.953509 -3.146545 0.315394 0.629684 0.152308
-82.686197 55.536534 -43.649155 -173.116046 -12.468452 -1.058259 -2.022400 15.656599 1.637286 -0.229181 1.483604 0.202966 -0.396107 2.492771 0.335329 -1.936568 13.739078 1.679758 1.993577 15.475451 2.005151 1.633609 -9.469013 1.648360 0.567842 -1.020401 0.452136 13.084469 -6.367067 -15.982474 -65.228544 -56.374941 111.515492 -7.922219 12.791103 9.229814 -8.491106 -1.575419 0.109579 3.568437 -19.102777 3.287324 38.052356 -50.226140 -74.830538 6.909968 6.077044 -4.123266 -2.802304 -63.299516 7.201670 -19.509390 85.931187 -23.549986 -8.933599 -15.243221 8.442287 -0.003937 -0.159863 0.072778 10.739089 -59.351143 -12.983878 90.411219 70.417161 92.127522 0.944693 -19.967554 -3.132870 0.324684 0.639506 0.146983
-82.689263 55.530643 -43.653469 -173.091411 -12.443767 -1.051194 -2.024255 15.630697 1.637638 -0.202808 1.476938 0.206623 -0.432652 2.498160 0.330562 -1.865875 13.722845 1.689988 1.966774 15.458957 2.077069 1.589449 -9.485628 1.729996 0.597787 -1.056131 0.462939 13.119412 -6.384285 -16.028833 -65.217902 -56.356036 111.453777 -7.915990 12.783019 9.236628 -8.424363 -1.578699 0.151618 3.596790 -18.949169 3.306800 38.091882 -50.236782 -74.948253 6.910520 6.037145 -4.040937 -2.817541 -63.330276 7.179891 -19.600612 85.952550 -23.648067 -8.932144 -15.274085 8.484170 0.011257 -0.131084 0.029152 10.751907 -59.372561 -13.011024 90.425404 70.428806 92.140269 0.941544 -19.969469 -3.135368 0.329676 0.641834 0.152257
-82.691798 55.527348 -43.659371 -173.069405 -12.444130 -1.047311 -2.023237 15.628226 1.640116 -0.180128 1.466762 0.206276 -0.422458 2.499668 0.335677 -1.843695 13.717682 1.688944 1.930183 15.445260 2.138028 1.551881 -9.519161 1.828831 0.630180 -1.094292 0.477423 13.123528 -6.395506 -16.068131 -65.207189 -56.362040 111.420461 -7.966040 12.756445 9.187490 -8.361503 -1.584025 0.193810 3.611881 -18.806868 3.339949 38.143284 -50.241496 -75.066594 6.912739 6.010825 -3.964791 -2.838940 -63.328525 7.169214 -19.650392 85.966110 -23.711738 -8.926748 -15.319251 8.534234 -0.022765 -0.087757 -0.020225 10.752680 -59.373512 -13.009324 90.478821 70.450460 92.179179 0.932244 -19.969289 -3.127278 0.332922 0.632199 0.157781
